<mxfile host="app.diagrams.net" modified="2022-12-29T14:22:33.339Z" agent="5.0 (Macintosh; Intel Mac OS X 10_15_7) AppleWebKit/605.1.15 (KHTML, like Gecko) Version/16.2 Safari/605.1.15" version="20.7.4" etag="Oz93wfszwo0OAccJz4N1" type="github">
  <diagram id="N9A41NVp2KLbbMPGoSbe" name="Seite-1">
    <mxGraphModel dx="2407" dy="1691" grid="1" gridSize="10" guides="1" tooltips="1" connect="1" arrows="1" fold="1" page="1" pageScale="1" pageWidth="827" pageHeight="1169" math="0" shadow="0">
      <root>
        <mxCell id="0" />
        <mxCell id="1" parent="0" />
        <mxCell id="82maepIwpO3Cy-ym5plF-1" value="" style="swimlane;startSize=0;" vertex="1" parent="1">
          <mxGeometry x="380" y="430" width="200" height="200" as="geometry" />
        </mxCell>
      </root>
    </mxGraphModel>
  </diagram>
</mxfile>
